<svg width="34" height="30" fill="none" xmlns="http://www.w3.org/2000/svg"><path d="M22.381 25.944a.996.996 0 001.146-.819l.997-5.977a.996.996 0 10-1.965-.327l-.997 5.976a.996.996 0 00.82 1.146zm-11.841-.819a.996.996 0 001.964-.328l-.996-5.977a.996.996 0 00-1.965.328l.996 5.977z" fill="#FF9846"/><path d="M33.004 10.02h-3.506L21.828.432a.996.996 0 00-1.555 1.245l6.674 8.342H7.053l6.674-8.342A.996.996 0 0012.171.432l-7.67 9.588H.997a.996.996 0 00-.996.996V15c0 .55.446.996.996.996h1.241L6.015 29.22a.996.996 0 00.958.722h20.054a.996.996 0 00.958-.722l3.778-13.223h1.24a.996.996 0 00.997-.996v-3.984a.996.996 0 00-.996-.996zm-6.728 17.93H7.724L4.309 15.995H29.69L26.276 27.95zm5.732-13.946H1.992v-1.992h30.016v1.992z" fill="#FF9846"/><path d="M17 25.957c.55 0 .996-.446.996-.996v-5.977a.996.996 0 00-1.992 0v5.977c0 .55.446.996.996.996z" fill="#FF9846"/></svg>