<svg width="32" height="30" fill="none" xmlns="http://www.w3.org/2000/svg"><path d="M12.637 9.26l-.205.084a1.995 1.995 0 00-1.731-1.007H7.537c-1.1 0-1.994.895-1.994 1.994v8.998c0 1.1.895 1.994 1.994 1.994h3.164a1.99 1.99 0 001.552-.744 8.69 8.69 0 003.508.744h6.684a2.036 2.036 0 001.787-3.003 2.036 2.036 0 00.957-2.78 2.036 2.036 0 001.268-1.883c0-.85-.525-1.58-1.268-1.883a2.036 2.036 0 00-1.805-2.967h-3.33a.572.572 0 01-.571-.571V6.397a3.328 3.328 0 00-3.325-3.324 1.46 1.46 0 00-1.457 1.458v1.646c0 1.356-.81 2.566-2.064 3.083zM10.7 20.073H7.537a.745.745 0 01-.744-.744v-8.998c0-.41.334-.744.744-.744h3.164c.41 0 .744.334.744.744v8.998c0 .41-.334.744-.744.744zm5.25-13.896V4.531c0-.115.093-.208.207-.208 1.144 0 2.075.93 2.075 2.074v1.839c0 1.004.816 1.82 1.82 1.82h3.331a.784.784 0 010 1.567h-3.9a.625.625 0 000 1.25h4.94a.784.784 0 010 1.567h-4.94a.625.625 0 000 1.25h3.9a.784.784 0 010 1.566h-3.9a.625.625 0 000 1.25h2.961a.784.784 0 010 1.567H15.76a7.432 7.432 0 01-3.067-.667l.002-.077v-8.741l.418-.172a4.569 4.569 0 002.838-4.239z" fill="#FF9846"/><path d="M26.375.25h-7.563a.625.625 0 000 1.25h7.563a4.38 4.38 0 014.375 4.375v14.5a4.38 4.38 0 01-4.375 4.375h-8.21c-.223 0-.43.12-.541.313L16 27.875l-1.624-2.813a.625.625 0 00-.541-.312h-8.21a4.38 4.38 0 01-4.375-4.375v-14.5A4.38 4.38 0 015.625 1.5h7.562a.625.625 0 000-1.25H5.625A5.631 5.631 0 000 5.875v14.5A5.631 5.631 0 005.625 26h7.85l1.984 3.438a.625.625 0 001.082 0L18.526 26h7.849A5.631 5.631 0 0032 20.375v-14.5A5.631 5.631 0 0026.375.25z" fill="#FF9846"/><path d="M16 1.5a.63.63 0 00.625-.625A.63.63 0 0016 .25a.63.63 0 00-.442.183.63.63 0 00-.183.442.63.63 0 00.183.442A.63.63 0 0016 1.5z" fill="#FF9846"/></svg>