<svg width="50" height="31" fill="none" xmlns="http://www.w3.org/2000/svg"><path d="M47.478 4.663c-2.28-1.423-4.501-1.649-6.459-.666-.508-.504-1.548-1.334-2.959-1.436-1.258-.093-2.5.408-3.695 1.486a4.472 4.472 0 00-1.37-2.75A4.843 4.843 0 0029.64 0c-2.27 0-4.234 1.71-4.708 3.915L19.393.35a1.041 1.041 0 00-1.482.385 7.402 7.402 0 00-.194.38C15.936.457 13.7.923 12.375 2.303A4.617 4.617 0 0011.217 6.7h-.335c-.86-3.11-4.012-4.747-4.146-4.815a.594.594 0 00-.673.965c.05.081.43.82-.433 3.347C3.47 4.99 1.202 4.602.747 4.534a.812.812 0 00-.163-.016A.594.594 0 00.515 5.7l.095.014.216.299c.326.46.782 1.48 1.099 3.714.243 1.709 1.22 3.152 2.29 4.083-.782.17-1.347.641-1.423 1.245-.039.31-.059.624-.059.938 0 3.402 2.264 6.576 6.375 8.936 1.959 1.124 4.23 2 6.698 2.603v2.159a.594.594 0 00.594.594h15.353a.594.594 0 00.593-.594v-2.159c2.469-.604 4.74-1.48 6.698-2.603 4.111-2.36 6.375-5.534 6.375-8.937 0-.313-.02-.626-.06-.938a1.148 1.148 0 00-.183-.486c1.918-.704 3.304-2.328 4.04-3.857a4.709 4.709 0 00-1.738-6.048zM29.64 1.188c1.811 0 3.225 1.165 3.514 2.796-.338-.006-.718.002-1.122.033a2.51 2.51 0 00-4.81 1.03c0 .12.006.237.02.355l-1.216-.783c.162-1.89 1.75-3.431 3.614-3.431zm1.113 3.007c-.827.16-1.62.463-2.343.896v-.044a1.315 1.315 0 012.343-.852zm-11.87-2.76l7.953 5.118a5.456 5.456 0 00-.547.969l-5.315-3.424a.95.95 0 00-.854-.092.971.971 0 00-.59.636c-.354 1.213-.035 2.765.875 4.257.852 1.397 2.177 2.664 3.773 3.623-.315.378-.615.744-.751 1.217h-.264c-2.1-1.519-3.696-3.618-4.5-5.932-.797-2.297-.718-4.554.22-6.373zm6.158 9.44c.057.037.12.066.184.087a5.946 5.946 0 01-.33.604c-3.077-1.801-4.565-4.528-4.29-6.294L25.91 8.69a6.924 6.924 0 00-.045.218c-.036.19-.075.372-.117.543a.796.796 0 00-1.053.924c.045.206.17.386.347.5zm-6.98-1.418a13.746 13.746 0 003.215 4.282h-3.214V9.457zm-4.83-6.331c.99-1.031 2.717-1.39 4.058-.903a8.212 8.212 0 00-.216.896 3.158 3.158 0 00-1.01-.163 2.969 2.969 0 00-2.85 3.743h-.752a3.39 3.39 0 01.77-3.573zm3.9 3.573h-2.664c-.109-.24-.166-.5-.168-.765a1.78 1.78 0 011.764-1.791c.304-.003.604.067.875.205a9.92 9.92 0 00.194 2.351zm-6.05 1.187h5.793v5.853H9.781a8.12 8.12 0 00.048-1.495c.925-1.487 1.344-2.947 1.253-4.357zM7.373 3.731c.871.69 1.973 1.816 2.375 3.322.283 1.058.183 2.175-.292 3.336a6.64 6.64 0 00-.86-1.643A8.258 8.258 0 006.66 6.847c.443-1.242.682-2.287.712-3.116zM3.101 9.56c-.21-1.472-.506-2.637-.883-3.477 1.635.47 4.052 1.452 5.411 3.354.866 1.21 1.184 2.657.953 4.303h-.41C7.45 9.765 5.198 8.638 5.099 8.59a.594.594 0 10-.514 1.071c.018.009 1.733.867 2.381 4.079h-.484c-.983-.11-3.042-1.803-3.38-4.18zm28.058 19.537H16.994v-1.298c4.676.929 9.489.929 14.165 0v1.298zm13.034-12.42H14.454a.593.593 0 100 1.187h29.5c-.677 2.257-2.571 4.353-5.501 6.035-3.83 2.198-8.936 3.409-14.377 3.409-5.44 0-10.545-1.21-14.376-3.41-2.93-1.681-4.824-3.777-5.5-6.034h6.097a.594.594 0 000-1.187H3.96a6.21 6.21 0 01.01-1.463c.049-.086.372-.287.9-.287h38.414c.529 0 .852.201.9.287a6.306 6.306 0 01.01 1.463zM26.71 13.739a32.941 32.941 0 013.125-.988l.06.057c.43.357.896.669 1.389.931H26.71zm21.436-3.543c-.805 1.674-2.508 3.482-4.873 3.543h-9.02a13.176 13.176 0 01-2.943-1.36 85.43 85.43 0 015.826-1.146c.027.034.055.067.085.099.747.78 2.234 2.062 3.927 2.062.05 0 .1-.001.15-.004a.594.594 0 10-.054-1.186c-1.002.044-1.999-.636-2.648-1.2 3.401-.515 6.014-.765 6.077-.771a.593.593 0 10-.111-1.183c-.257.024-2.875.275-6.248.787.448-.813 1.333-1.948 2.864-2.2a.594.594 0 00-.193-1.172c-2.503.413-3.649 2.548-4.026 3.447a1.35 1.35 0 00-.05.147c-1.962.322-4.086.725-6.104 1.216.332-.947 1.062-2.385 2.518-2.878a.594.594 0 10-.382-1.125c-2.303.78-3.176 3.207-3.444 4.214a1.31 1.31 0 00-.027.132c-1.54.417-2.977.89-4.176 1.42.577-.71 1.336-1.79 1.738-3.908.388-2.035 1.716-3.303 3.95-3.77a10.494 10.494 0 013.46-.083.593.593 0 00.516-.159c1.01-.98 2.021-1.441 3.006-1.373 1.465.101 2.453 1.35 2.462 1.36a.594.594 0 00.78.147c1.673-1.015 3.572-.875 5.644.419a3.523 3.523 0 011.297 4.525z" fill="#FF9846"/></svg>