<svg width="30" height="24" fill="none" xmlns="http://www.w3.org/2000/svg"><path d="M15 6.21c1.308 0 2.66-.231 3.612-.675a.378.378 0 00.213-.106c.655-.351 1.072-.817 1.072-1.39 0-1.412-2.523-2.173-4.897-2.173s-4.897.761-4.897 2.172S12.626 6.21 15 6.21zm-.564-.777a.384.384 0 00-.051-.063l-2.299-2.3a6.808 6.808 0 011.14-.295l2.64 2.64a11.239 11.239 0 01-1.43.018zm4.698-1.395c0 .2-.182.426-.521.638l-1.914-1.914c1.54.256 2.434.832 2.434 1.276zM15.497 2.64l2.38 2.38c-.303.106-.656.2-1.055.272l-.006-.007-2.627-2.627a11.274 11.274 0 011.308-.018zm-4.14.78l1.883 1.884c-1.502-.261-2.373-.828-2.373-1.266 0-.193.17-.412.49-.618zm-3.693 9.15c2.374 0 4.897-.76 4.897-2.171 0-1.412-2.523-2.173-4.897-2.173s-4.896.761-4.896 2.172 2.522 2.173 4.896 2.173zm-2.663-1.12l1.53-1.236 1.585 1.585c-.147.005-.297.009-.452.009-1.077 0-1.98-.146-2.663-.358zm6.797-1.051c0 .467-.995 1.081-2.688 1.314l-.677-.677 1.95-1.671c.908.29 1.415.7 1.415 1.034zM9.47 9.14l-1.579 1.354-1.44-1.44a10.89 10.89 0 011.212-.066c.675 0 1.28.058 1.807.152zm-3.945.067l.463.463-1.781 1.438.024.03c-.455-.24-.701-.508-.701-.74 0-.4.726-.907 1.995-1.191z" fill="#A4ACAD"/><path d="M22.695 6.365v-2.33C22.692 1.772 19.313 0 15 0c-4.315 0-7.695 1.774-7.695 4.038v2.327C3.164 6.46-.03 8.197-.03 10.399v9.563C-.03 22.226 3.35 24 7.664 24c3.484 0 6.358-1.157 7.336-2.794.978 1.637 3.852 2.794 7.336 2.794 4.315 0 7.694-1.774 7.694-4.038v-9.563c0-2.202-3.193-3.939-7.335-4.034zm6.572 4.034c0 1.775-3.174 3.274-6.931 3.274s-6.932-1.5-6.932-3.274c0-1.776 3.174-3.275 6.932-3.275 3.757 0 6.931 1.5 6.931 3.275zm-7.982-4.003c.245-.18.461-.373.647-.576v.546c-.219.005-.434.016-.647.03zM15 9.154c-.241-.404-.598-.778-1.05-1.114a15.318 15.318 0 002.1 0c-.453.336-.809.71-1.05 1.114zm0-8.39c3.757 0 6.931 1.499 6.931 3.274S18.757 7.313 15 7.313s-6.931-1.5-6.931-3.275S11.243.763 15 .763zM8.715 6.395a15.076 15.076 0 00-.646-.03V5.82c.185.203.401.395.646.576zm-1.05.728c3.756 0 6.93 1.5 6.93 3.275s-3.174 3.274-6.93 3.274c-3.758 0-6.932-1.5-6.932-3.274 0-1.776 3.174-3.275 6.931-3.275zm0 16.113c-3.758 0-6.932-1.5-6.932-3.275V12.18c1.234 1.347 3.843 2.256 6.931 2.256 3.089 0 5.698-.91 6.932-2.256v7.78c0 1.776-3.175 3.276-6.932 3.276zm21.602-3.275c0 1.775-3.174 3.275-6.931 3.275s-6.932-1.5-6.932-3.275V12.18c1.234 1.347 3.843 2.256 6.932 2.256 3.088 0 5.697-.91 6.931-2.256v7.78z" fill="#A4ACAD"/><path d="M17.439 10.399c0 1.41 2.523 2.172 4.897 2.172 2.373 0 4.896-.762 4.896-2.172 0-1.412-2.523-2.173-4.896-2.173-2.374 0-4.897.761-4.897 2.172zm9.03 0c0 .588-1.572 1.409-4.133 1.409s-4.134-.821-4.134-1.41c0-.588 1.573-1.409 4.134-1.409 2.56 0 4.133.821 4.133 1.41z" fill="#A4ACAD"/><path d="M19.743 10.403c0 .765 1.625.88 2.593.88s2.592-.115 2.592-.88c0-.766-1.624-.88-2.592-.88s-2.593.114-2.593.88zm2.593.116c-.592 0-1.06-.053-1.385-.116a7.358 7.358 0 011.385-.117c.591 0 1.06.053 1.384.117a7.346 7.346 0 01-1.384.116z" fill="#A4ACAD"/></svg>