<svg width="30" height="19" fill="none" xmlns="http://www.w3.org/2000/svg"><path d="M28.665 3.034c-1.376-.859-2.717-.995-3.9-.402-.306-.304-.934-.805-1.786-.867-.76-.056-1.51.247-2.231.897a2.7 2.7 0 00-.827-1.66 2.924 2.924 0 00-2.025-.783c-1.371 0-2.556 1.032-2.842 2.364L11.709.43a.63.63 0 00-.895.233c-.041.075-.08.151-.117.229C9.621.495 8.271.776 7.471 1.61a2.788 2.788 0 00-.699 2.654H6.57c-.519-1.878-2.422-2.866-2.503-2.908a.359.359 0 00-.406.583c.03.05.259.496-.262 2.021C2.095 3.232.726 2.997.45 2.956a.49.49 0 00-.099-.01.359.359 0 00-.041.714l.057.01.13.18c.197.278.473.893.664 2.242.147 1.031.737 1.903 1.382 2.465-.471.103-.812.387-.858.751a4.537 4.537 0 00-.036.567c0 2.054 1.367 3.97 3.85 5.395 1.182.678 2.553 1.208 4.043 1.572v1.303a.359.359 0 00.358.359h9.27a.359.359 0 00.358-.359v-1.303c1.49-.365 2.862-.894 4.044-1.572 2.482-1.425 3.85-3.341 3.85-5.395 0-.19-.013-.379-.037-.567a.693.693 0 00-.11-.293c1.158-.426 1.994-1.406 2.439-2.33a2.843 2.843 0 00-1.05-3.65zM17.896.936c1.093 0 1.947.704 2.122 1.689a7.18 7.18 0 00-.678.02 1.515 1.515 0 00-2.904.622c0 .071.004.143.012.214l-.734-.473C15.812 1.867 16.77.936 17.896.936zm.672 1.816c-.5.096-.978.28-1.415.54v-.026a.794.794 0 011.415-.514zm-7.167-1.667l4.802 3.09c-.13.184-.24.38-.33.585l-3.21-2.067a.574.574 0 00-.738.095.587.587 0 00-.133.234c-.214.732-.021 1.67.528 2.57.515.843 1.315 1.608 2.278 2.187-.19.229-.37.45-.453.735h-.16c-1.268-.917-2.231-2.184-2.716-3.581-.482-1.387-.434-2.75.133-3.848zm3.718 5.7a.5.5 0 00.112.053c-.06.125-.127.247-.2.364-1.857-1.087-2.756-2.734-2.59-3.8l3.203 2.064a2.52 2.52 0 00-.028.131 6.318 6.318 0 01-.07.328.48.48 0 00-.636.558.486.486 0 00.21.302zm-4.213-.856c.47.98 1.13 1.859 1.94 2.585h-1.94V5.93zM7.988 2.106c.598-.622 1.641-.839 2.451-.545a4.977 4.977 0 00-.13.541 1.907 1.907 0 00-.61-.098 1.793 1.793 0 00-1.721 2.26h-.454a2.047 2.047 0 01.464-2.158zm2.356 2.157H8.735a1.141 1.141 0 01-.102-.461A1.075 1.075 0 019.7 2.72c.183-.002.364.04.528.124a5.99 5.99 0 00.117 1.42zM6.69 4.98h3.497v3.534H5.905c.038-.3.047-.602.03-.903.558-.898.81-1.78.756-2.63zM4.45 2.471c.526.417 1.191 1.097 1.435 2.006.17.64.11 1.314-.177 2.014a4.009 4.009 0 00-.52-.992A4.986 4.986 0 004.02 4.353c.268-.75.413-1.38.43-1.882zm-2.579 3.52c-.126-.889-.305-1.592-.533-2.1.987.285 2.447.877 3.267 2.025.523.732.715 1.605.576 2.598h-.248c-.436-2.4-1.796-3.08-1.856-3.108a.358.358 0 10-.31.646c.01.005 1.046.524 1.437 2.462h-.292c-.593-.066-1.837-1.088-2.04-2.523zm16.94 11.796H10.26v-.784a21.93 21.93 0 008.552 0v.784zm7.87-7.5H8.727a.358.358 0 000 .718h17.81c-.408 1.362-1.552 2.627-3.32 3.643-2.313 1.327-5.396 2.058-8.68 2.058-3.285 0-6.368-.73-8.68-2.058-1.77-1.015-2.913-2.28-3.321-3.643h3.681a.358.358 0 100-.717H2.391a3.75 3.75 0 01.005-.883c.03-.052.225-.174.544-.174h23.192c.32 0 .515.122.544.174a3.804 3.804 0 01.006.883zM16.126 8.514a19.91 19.91 0 011.887-.597l.036.035c.26.215.54.404.838.562h-2.761zm12.942-2.139c-.486 1.01-1.514 2.102-2.943 2.14H20.68a7.953 7.953 0 01-1.777-.823 51.596 51.596 0 013.518-.691c.016.02.032.04.05.06.452.47 1.35 1.245 2.372 1.245l.09-.002a.358.358 0 10-.032-.717c-.605.027-1.207-.383-1.599-.725a73.824 73.824 0 013.669-.465.359.359 0 00-.067-.714c-.155.015-1.736.166-3.772.475.27-.49.805-1.176 1.73-1.328a.358.358 0 00-.117-.708c-1.512.25-2.204 1.539-2.431 2.082a.79.79 0 00-.03.088 50.603 50.603 0 00-3.686.734c.2-.572.641-1.44 1.52-1.737a.358.358 0 10-.23-.68c-1.39.472-1.918 1.937-2.08 2.545a.827.827 0 00-.016.08c-.93.252-1.797.537-2.521.857.348-.43.806-1.08 1.05-2.36.233-1.228 1.036-1.994 2.384-2.275a6.331 6.331 0 012.09-.05.358.358 0 00.31-.097c.61-.591 1.22-.87 1.816-.83.884.062 1.48.816 1.486.823a.359.359 0 00.47.088c1.01-.613 2.157-.528 3.408.253a2.127 2.127 0 01.783 2.732z" fill="#A4ACAD"/><path d="M14.296 4.858a.48.48 0 00-.73.51.485.485 0 00.573.368.479.479 0 00.366-.576.486.486 0 00-.21-.302zm-6.547 9.13a.359.359 0 00.157.482 9.984 9.984 0 004.291 1.071h.01a.358.358 0 10.008-.717 9.273 9.273 0 01-3.985-.994.358.358 0 00-.481.158zm-.786-.929a9.631 9.631 0 01-.344-.258.359.359 0 10-.443.565c.121.094.245.187.369.276a.358.358 0 10.418-.583z" fill="#A4ACAD"/></svg>