<svg width="16" height="30" fill="none" xmlns="http://www.w3.org/2000/svg"><path d="M15.608 11.275h-.353c-.157-3.765-3.177-6.785-6.902-6.98V.49c0-.235-.157-.392-.392-.392-.236 0-.392.157-.392.392v3.804a7.281 7.281 0 00-6.902 6.98H.392c-.235 0-.392.158-.392.393v2c0 .235.157.392.392.392h.275l1.45 15.49c0 .196.197.353.393.353h10.784c.196 0 .353-.157.392-.353l1.451-15.49h.47c.236 0 .393-.157.393-.392v-2a.393.393 0 00-.392-.392zM8.353 5.079a6.528 6.528 0 016.118 6.196H8.353V5.079zm-.784 0v6.196H1.45a6.498 6.498 0 016.118-6.196zm-6.785 6.98H7.57v1.216H.784v-1.216zm.667 2h6.118v2.549H1.686l-.235-2.55zm11.49 15.059H2.863L1.765 17.353h5.804v6.784c0 .236.156.392.392.392.235 0 .392-.156.392-.392v-6.784h5.686l-1.098 11.765zm1.177-12.55H8.353v-2.51h6l-.235 2.51zm1.098-3.293H8.353v-1.216h6.863v1.216z" fill="#A4ACAD"/><path d="M4.824 18.53a1.74 1.74 0 00-1.726 1.725 1.74 1.74 0 001.726 1.726 1.74 1.74 0 001.725-1.726 1.74 1.74 0 00-1.725-1.726zm0 2.666a.954.954 0 01-.942-.941c0-.51.432-.941.942-.941s.94.431.94.941-.43.941-.94.941zm5.921 3.098A1.74 1.74 0 009.02 26.02c0 .94.745 1.725 1.725 1.725a1.74 1.74 0 001.726-1.725 1.74 1.74 0 00-1.726-1.726zm0 2.667a.954.954 0 01-.941-.941.93.93 0 01.941-.942c.51 0 .941.432.941.942s-.431.94-.94.94zm.235-7.882c-.784 0-1.45.666-1.45 1.45 0 .785.666 1.452 1.45 1.452.785 0 1.451-.667 1.451-1.451 0-.785-.666-1.451-1.45-1.451zm0 2.117a.687.687 0 01-.666-.666c0-.353.313-.667.666-.667.353 0 .667.314.667.667a.661.661 0 01-.667.666zm-5.255 3.373c-.784 0-1.45.666-1.45 1.45 0 .785.666 1.452 1.45 1.452.785 0 1.451-.667 1.451-1.451 0-.785-.666-1.451-1.45-1.451zm0 2.117a.687.687 0 01-.666-.666c0-.353.314-.667.666-.667.353 0 .667.314.667.667a.66.66 0 01-.667.666z" fill="#A4ACAD"/></svg>