<svg width="30" height="30" fill="none" xmlns="http://www.w3.org/2000/svg"><path d="M27.65 15.378a.855.855 0 010-.756l1.088-2.226a2.533 2.533 0 00-1.093-3.364L25.456 7.87a.855.855 0 01-.444-.611l-.428-2.441a2.533 2.533 0 00-2.862-2.08l-2.454.348a.855.855 0 01-.718-.234l-1.781-1.723a2.533 2.533 0 00-3.537 0L11.45 2.852a.855.855 0 01-.718.234l-2.454-.347a2.533 2.533 0 00-2.862 2.079l-.428 2.44a.855.855 0 01-.444.612l-2.19 1.162a2.533 2.533 0 00-1.092 3.364l1.088 2.226a.855.855 0 010 .756l-1.088 2.226a2.533 2.533 0 001.093 3.364l2.189 1.162a.855.855 0 01.444.611l.428 2.441a2.532 2.532 0 002.862 2.08l2.454-.348a.855.855 0 01.719.234l1.78 1.723a2.535 2.535 0 003.537 0l1.782-1.723a.856.856 0 01.718-.234l2.454.347a2.533 2.533 0 002.862-2.079l.428-2.44a.855.855 0 01.444-.612l2.19-1.162a2.533 2.533 0 001.092-3.364l-1.088-2.226zm-.793 4.103l-2.19 1.162a2.527 2.527 0 00-1.313 1.807l-.428 2.441a.857.857 0 01-.968.704l-2.454-.347a2.527 2.527 0 00-2.125.69L15.6 27.66a.857.857 0 01-1.197 0l-1.781-1.723a2.525 2.525 0 00-2.125-.69l-2.454.347a.857.857 0 01-.968-.704l-.428-2.44a2.527 2.527 0 00-1.313-1.808l-2.19-1.162a.857.857 0 01-.37-1.138l1.089-2.226a2.527 2.527 0 000-2.234l-1.088-2.227a.857.857 0 01.37-1.138l2.189-1.161a2.527 2.527 0 001.313-1.808l.428-2.44a.857.857 0 01.968-.704l2.454.347a2.528 2.528 0 002.124-.69l1.782-1.723a.857.857 0 011.196 0l1.781 1.723c.568.55 1.343.8 2.125.69l2.454-.347a.857.857 0 01.968.703l.428 2.441a2.527 2.527 0 001.313 1.808l2.19 1.161a.857.857 0 01.37 1.138l-1.09 2.227a2.527 2.527 0 000 2.234l1.09 2.226c.204.42.042.92-.37 1.138z" fill="#A4ACAD"/><path d="M21.149 8.851a.842.842 0 00-1.19 0L8.85 19.96a.842.842 0 001.19 1.19l11.11-11.11a.841.841 0 000-1.19zm-9.515-1.425a3.09 3.09 0 00-3.086 3.086 3.09 3.09 0 003.086 3.085 3.09 3.09 0 003.085-3.085 3.09 3.09 0 00-3.085-3.086zm0 4.488a1.404 1.404 0 010-2.805 1.404 1.404 0 010 2.805zm6.732 4.488a3.089 3.089 0 00-3.085 3.086 3.089 3.089 0 003.085 3.085 3.09 3.09 0 003.086-3.085 3.09 3.09 0 00-3.086-3.086zm0 4.488a1.404 1.404 0 010-2.805 1.404 1.404 0 010 2.805z" fill="#A4ACAD"/></svg>