<svg width="26" height="26" fill="none" xmlns="http://www.w3.org/2000/svg"><path d="M24.954 1.058a.374.374 0 00-.506.234l-2.296 5.72h-.467L19.156 3.16c-.078-.117-.194-.195-.311-.195H7.405a.354.354 0 00-.311.156l-2.88 3.852h-.35L1.57 1.253c-.078-.195-.312-.311-.506-.234-.195.078-.311.312-.234.506L3.203 7.44l1.323 17.782v.428c0 .194.194.35.389.35h16.187c.194 0 .389-.156.389-.35l1.284-18.171 2.373-5.915c.117-.233 0-.428-.194-.506zM7.6 3.743h11.05l2.102 3.269H5.187L7.6 3.743zM21.724 7.79l-8.716 9.027L4.253 7.79h17.471zM4.06 8.724l8.366 8.677-7.199 7.004L4.06 8.724zM5.5 25.222l7.47-7.276 7.238 7.276H5.499zm15.292-.467l-7.238-7.393 8.405-8.716-1.167 16.109z" fill="#A4ACAD"/></svg>