<svg width="30" height="18" fill="none" xmlns="http://www.w3.org/2000/svg"><path d="M29.21 8.303l-2.33-2.712c-.36-.418-.75-.82-1.159-1.192a.442.442 0 00-.596.653c.338.309.661.638.963.98a13.616 13.616 0 01-1.23 6.192l-3.12-1.406c-.088-.04-.176-.078-.265-.116a14.52 14.52 0 00-.84-8.302c1.075.366 3.647 2.091 4.592 2.731a.44.44 0 00.614-.118.442.442 0 00-.118-.614c-1.908-1.292-5.667-3.3-7.958-3.511A2.05 2.05 0 0016.12.065h-3.336c-.743 0-1.394.396-1.755.989A13.696 13.696 0 003.122 5.59L.79 8.303a3.288 3.288 0 00-.37 3.744 3.27 3.27 0 002.037 1.566 3.687 3.687 0 00.788 2.705 3.692 3.692 0 002.902 1.398h5.716c.277.14.59.22.921.22h3.336c.332 0 .644-.08.922-.22h6.752c1.137 0 2.194-.51 2.902-1.398a3.686 3.686 0 00.789-2.69 3.27 3.27 0 002.096-1.58 3.288 3.288 0 00-.37-3.745zm-9.688-6.226a13.63 13.63 0 011.114 8.294c-.8-.29-1.625-.516-2.464-.674v-7.58c0-.1-.007-.198-.02-.293.46.06.918.143 1.37.253zm-8.79.04v4.267A14.558 14.558 0 007.65 3.13c.972-.5 2.01-.875 3.086-1.113a2.112 2.112 0 00-.003.1zM1.19 11.614a2.401 2.401 0 01.27-2.734l1.257-1.462c.495.27.978.573 1.44.905.079.057 1.324 1.17 1.413 1.17.138 0 .344-.373.43-.493.143-.198.377-.007.179-.15-.44-.316-2.404-1.854-2.873-2.118l.485-.565a12.781 12.781 0 013.016-2.565 13.652 13.652 0 013.925 4.463v1.879a15.85 15.85 0 00-2.47.874l-.266.12A14.522 14.522 0 006.179 8.85a.442.442 0 10-.609.642 13.639 13.639 0 011.602 1.817L4.26 12.623a2.381 2.381 0 01-3.07-1.008zm2.746 4.153a2.809 2.809 0 01-.6-2.05c.44-.008.877-.104 1.287-.289l4.002-1.804a14.95 14.95 0 012.107-.763v3.788h-.442a.442.442 0 100 .884h.442v.35c0 .343.085.665.233.949H6.147a2.81 2.81 0 01-2.21-1.065zm22.069 0a2.812 2.812 0 01-2.21 1.065h-5.856c.133-.254.215-.539.23-.84h.512a.442.442 0 000-.884h-.509v-2.666a.442.442 0 10-.884 0v3.442c0 .643-.524 1.167-1.167 1.167h-3.337a1.169 1.169 0 01-1.167-1.167V2.117c0-.644.523-1.168 1.167-1.168h3.337a1.17 1.17 0 011.167 1.168v10.217a.442.442 0 10.884 0v-1.737c1.104.222 2.179.566 3.203 1.027l4.002 1.804c.392.177.808.272 1.229.287a2.81 2.81 0 01-.601 2.052zm2.805-4.153a2.381 2.381 0 01-3.07 1.008l-.077-.035a14.51 14.51 0 001.31-5.53l1.566 1.823c.654.76.763 1.86.27 2.734z" fill="#A4ACAD"/><path d="M19.992 12.034h-.426a.442.442 0 000 .885h.426a.442.442 0 100-.885zm2.393 1.87h-.721a.442.442 0 100 .884h.72a.442.442 0 000-.884zm-12.014-.628a.442.442 0 00-.442-.442h-.787a.442.442 0 000 .884h.787a.442.442 0 00.442-.442zm-3.163 1.373h-1.41a.442.442 0 000 .884h1.41a.442.442 0 100-.884z" fill="#A4ACAD"/></svg>