<svg width="30" height="28" fill="none" xmlns="http://www.w3.org/2000/svg"><path d="M29.109 10.577c-.078-.117-.156-.233-.273-.272.117-.156.195-.39.156-.584-.039-.856-.428-2.606-2.334-4.784-1.945-2.179-3.656-2.762-4.473-2.918-.156-.039-.272 0-.39 0a.865.865 0 00-.31-.505c-.662-.545-2.218-1.4-5.135-1.4s-4.473.894-5.173 1.4c-.35.272-.467.7-.273 1.089l.623 1.439 3.89 9.413c0 .04.038.078.077.117-.078-.039-.194-.039-.31-.039l-10.231.895-1.556.116a.95.95 0 00-.856.778c-.155.856-.194 2.646 1.206 5.174 1.362 2.567 2.917 3.5 3.695 3.85.117.04.234.079.39.079h.038c0 .194.078.389.195.583.544.661 1.828 1.906 4.668 2.567a11.43 11.43 0 002.606.312c1.322 0 2.217-.273 2.723-.506.116-.039.233-.156.31-.233.156.116.35.233.545.233h.234c.933 0 2.606-.272 4.745-1.79 2.373-1.672 3.151-3.306 3.423-4.123.04-.116.04-.272.04-.389.194-.038.388-.116.544-.272.622-.622 1.673-2.061 1.984-4.94.389-2.878-.311-4.551-.778-5.29zm-7.274-7.702c.039-.078.116-.117.155-.078.74.156 2.295.662 4.046 2.645 1.75 1.984 2.1 3.54 2.14 4.318 0 .078-.04.117-.118.156l-.622.233c-.078-.778-.467-2.256-2.061-4.084-1.595-1.829-3.073-2.373-3.852-2.529l.312-.661zm5.64 12.72c-.272 2.373-1.167 3.5-1.556 3.89-.039.038-.078.038-.117 0l-4.55-2.645-4.007-2.529 4.55-1.517 4.94-1.4c.04 0 .079 0 .118.039.31.466.894 1.789.622 4.162zM21.29 4.275c.506.078 1.906.506 3.54 2.334 1.595 1.79 1.828 3.229 1.867 3.735a.084.084 0 01-.078.077l-5.018 1.634-4.55 1.284 1.905-4.396 2.256-4.629c0-.039.04-.039.078-.039zM11.566 2.33c-.04-.077 0-.155.038-.194.623-.467 2.023-1.245 4.668-1.245s4.046.778 4.63 1.245c.038.039.077.117.038.194l-.272.623c-.662-.467-1.984-1.167-4.396-1.167-2.411 0-3.812.7-4.434 1.167l-.272-.623zm.622 1.44c0-.04 0-.078.039-.117.428-.311 1.672-1.09 4.084-1.09 2.334 0 3.54.662 4.046 1.09.038.039.038.078.038.117l-2.1 4.862-2.178 4.512-3.929-9.374zm4.007 10.269v.078s-.04 0-.078.038c-.04 0-.04 0-.078-.038 0-.04 0-.078-.039-.117l-.039-.039c.039 0 .117.039.156.039.039.039.039.039.078.039zm-.467 1.167l.972 4.707.817 5.056c0 .04 0 .078-.039.117-.467.233-1.867.661-4.2.117-2.335-.545-3.346-1.556-3.696-1.984-.04-.04-.04-.078 0-.117l3.15-4.24 2.996-3.656zm-7.78 8.402c-.039.039-.117.078-.194.039-.545-.234-2.023-1.09-3.346-3.54-1.244-2.334-1.244-3.929-1.089-4.668 0-.078.078-.117.156-.117l.7-.038c-.117.777-.078 2.333 1.05 4.434 1.167 2.14 2.412 2.995 3.151 3.345l-.428.545zm-2.062-4.24c-1.128-2.1-1.05-3.54-.972-4.084 0-.04.039-.078.078-.078l10.191-.856c-.039.039-.078.039-.078.078l-2.956 3.967-3.228 4.007c-.04.039-.078.039-.117.039-.506-.234-1.75-.973-2.918-3.073zm11.826 7.313c-.545.272-2.14.778-4.863.155-2.606-.622-3.773-1.711-4.24-2.295-.039-.039-.039-.116 0-.194l.428-.545c.506.623 1.673 1.595 4.007 2.14.894.194 1.633.272 2.295.272 1.089 0 1.828-.233 2.295-.428l.116.7c.078.117.04.195-.038.195zm.816-1.75l-1.05-5.174-.778-4.668 4.162 2.412 4.318 2.761c.039.04.039.078.039.117-.156.506-.74 1.828-2.723 3.229-1.984 1.361-3.384 1.478-3.929 1.439 0-.039-.039-.039-.039-.117zm4.94.038c-2.178 1.517-3.773 1.673-4.512 1.634-.078 0-.116-.039-.155-.117l-.117-.7h.078c.817 0 2.295-.233 4.2-1.556 1.985-1.4 2.724-2.762 2.957-3.5l.584.35c.077.038.077.116.077.194-.155.583-.817 2.1-3.112 3.695zm5.68-9.18c-.312 2.645-1.245 3.929-1.79 4.473-.039.04-.116.078-.194.04l-.584-.35c.545-.584 1.4-1.868 1.673-4.24.272-2.412-.272-3.851-.661-4.552l.66-.194c.079-.039.157 0 .195.078.39.622 1.012 2.1.7 4.745z" fill="#A4ACAD"/><path d="M17.945 3.38c-.778 0-1.4.623-1.4 1.401s.622 1.4 1.4 1.4c.778 0 1.4-.622 1.4-1.4 0-.778-.622-1.4-1.4-1.4zm0 2.062a.614.614 0 01-.622-.622c0-.35.272-.622.622-.622s.622.272.622.622-.272.622-.622.622zM16.117 6.61c-.74 0-1.323.583-1.323 1.322 0 .739.584 1.322 1.323 1.322s1.322-.583 1.322-1.322c0-.74-.583-1.323-1.322-1.323zm-.04 1.866a.532.532 0 01-.544-.544c0-.311.234-.545.545-.545.311 0 .544.234.544.545a.532.532 0 01-.544.544zM23.04 6.57a1.164 1.164 0 00-1.633-.077c-.233.194-.35.505-.39.778 0 .31.079.622.273.816.195.273.506.428.817.428h.078c.272 0 .544-.116.778-.31a1.164 1.164 0 00.078-1.635zm-.66 1.128c-.078.078-.156.117-.273.078a.353.353 0 01-.272-.116c-.078-.078-.117-.156-.078-.273.039-.116.078-.233.155-.272.078-.078.156-.078.234-.078.117 0 .194.04.272.117.156.155.117.389-.039.544zm3.811 8.402c-.272-.272-.583-.466-.933-.505-.74-.078-1.44.467-1.517 1.206-.078.739.466 1.439 1.206 1.517h.155c.7 0 1.284-.506 1.362-1.206a1.535 1.535 0 00-.273-1.011zm-1.167 1.479a.605.605 0 11.117-1.206c.156 0 .311.116.39.233.077.117.155.272.155.428a.605.605 0 01-.662.545zm1.517-4.979c-.155-.234-.428-.39-.739-.428a1.114 1.114 0 00-.855.233 1.202 1.202 0 00-.428.778c-.04.311.039.623.233.856.195.233.467.389.778.428h.117c.272 0 .505-.078.7-.234.233-.194.389-.466.428-.777a1.114 1.114 0 00-.234-.856zm-.66 1.011c-.079.078-.195.078-.273.078a.263.263 0 01-.233-.156c-.078-.077-.078-.194-.078-.272 0-.117.078-.194.155-.233.078-.078.195-.078.272-.078.117 0 .195.078.234.155a.721.721 0 01.078.273c0 .078-.078.194-.156.233zm-5.174 4.707c-.234-.312-.506-.506-.856-.545-.35-.078-.7 0-1.011.233a1.353 1.353 0 00-.312 1.868c.234.35.662.544 1.09.544.272 0 .544-.078.777-.233.312-.195.506-.506.545-.856.078-.35 0-.7-.233-1.011zm-.545.894a.566.566 0 01-.233.35c-.234.195-.584.117-.778-.155a.57.57 0 01.155-.778.57.57 0 01.778.155c.078.117.117.273.078.428zm-4.979 2.528c-.311-.077-.622-.038-.856.156-.272.156-.428.428-.505.7-.195.623.194 1.245.817 1.4a.662.662 0 00.272.04c.505 0 1.011-.35 1.128-.895a1.16 1.16 0 00-.856-1.4zm.039 1.245c-.039.195-.233.312-.467.273-.116-.04-.194-.078-.233-.156-.039-.078 0-.194 0-.311.039-.117.078-.195.155-.233.078-.04.117-.04.195-.04h.078c.194.04.31.234.272.467zm-6.924-6.807c-.35-.661-1.206-.933-1.867-.544-.661.35-.934 1.205-.545 1.867.234.466.74.739 1.206.739.234 0 .428-.04.662-.156a1.447 1.447 0 00.544-1.906zm-.933 1.206a.615.615 0 01-.817-.233.614.614 0 01.233-.817.615.615 0 01.817.233c.156.272.039.661-.233.817zm4.512-1.05c-.156-.311-.467-.545-.778-.661a1.16 1.16 0 00-1.011.116c-.312.156-.545.467-.662.778-.116.35-.078.7.117 1.012.155.35.428.583.778.66.117.04.272.04.389.04.233 0 .428-.04.622-.156.311-.155.545-.467.661-.778.117-.35.078-.7-.116-1.011zm-.934 1.128c-.117.078-.272.078-.428.039a.445.445 0 01-.31-.273.773.773 0 01-.04-.427.445.445 0 01.273-.312c.116-.077.272-.077.427-.038a.445.445 0 01.312.272.525.525 0 01-.234.739zm2.373-6.574l-6.263-8.09-.972-1.246c-.272-.35-.7-.466-1.09-.272-.777.35-2.294 1.284-3.695 3.812C-.104 7.621-.065 9.45.052 10.305c.078.428.389.739.817.778l1.556.116 10.113 1.09h.117a.834.834 0 00.739-.428c.155-.312.155-.662-.078-.973zm-11.67-.506l-.66-.077c-.078 0-.117-.078-.156-.117-.117-.74-.117-2.373 1.128-4.707C3.24 3.147 4.603 2.291 5.264 2.02c.078-.039.156 0 .195.04l.427.544c-.739.35-1.983 1.206-3.15 3.306-1.167 2.14-1.206 3.657-1.09 4.473zm11.125 1.09c-.038.038-.038.038-.077.038L2.58 10.421c-.078 0-.117-.039-.117-.077-.077-.545-.155-1.984 1.012-4.085 1.167-2.1 2.411-2.8 2.878-3.034.04 0 .078 0 .117.039l6.301 8.09c.04.04.04.079 0 .118z" fill="#A4ACAD"/><path d="M7.52 5.481c-.116-.35-.35-.661-.661-.817a1.246 1.246 0 00-1.05-.116c-.35.116-.662.35-.817.66-.195.312-.234.701-.117 1.051s.35.661.661.856c.195.117.428.155.662.155.505 0 .972-.272 1.205-.739.195-.31.234-.7.117-1.05zm-.817.7c-.155.311-.544.39-.817.234a.495.495 0 01-.272-.35c-.039-.156 0-.312.078-.467a.495.495 0 01.35-.272c.039 0 .117-.04.156-.04.116 0 .194.04.272.078a.495.495 0 01.272.35.65.65 0 01-.039.467zm1.44 2.062c-.545-.39-1.245-.195-1.556.389a1.03 1.03 0 00-.078.895 1.1 1.1 0 00.544.7c.156.078.35.155.545.155.117 0 .233 0 .311-.039a1.1 1.1 0 00.7-.544 1.125 1.125 0 00-.466-1.556zm-.195 1.09c-.117.194-.311.232-.506.155a.398.398 0 01-.194-.234c-.039-.116 0-.194.039-.272a.398.398 0 01.233-.195c0 .04.04 0 .078 0a.35.35 0 01.194.04c.195.116.234.31.156.505zm-3.112-.545l-.467-.973c-.077-.194-.31-.272-.505-.194-.195.077-.273.31-.195.505l.467.973c.078.155.195.233.35.233.039 0 .117 0 .156-.039.194-.078.272-.31.194-.505zm10.269-3.151l-.466-.973c-.078-.194-.312-.272-.506-.194-.195.078-.272.31-.195.505l.467.973c.078.155.195.233.35.233.04 0 .117 0 .156-.039.194-.077.311-.31.194-.505zm6.846 4.862l-.466-.972c-.078-.195-.311-.273-.506-.195-.194.078-.272.311-.194.506l.466.972c.078.156.195.234.35.234.04 0 .117 0 .156-.04.194-.077.272-.31.194-.505zM12.616 23.18l-.467-.973c-.078-.194-.311-.272-.506-.194-.194.078-.272.311-.194.506l.467.972c.077.156.194.233.35.233.039 0 .117 0 .155-.038.195-.078.273-.312.195-.506zm7.974-.856l-1.09-.195a.427.427 0 00-.466.312.427.427 0 00.311.466l1.09.195h.077a.38.38 0 00.39-.311c.077-.234-.079-.428-.312-.467zm1.79-7.274l-1.09-.194a.427.427 0 00-.467.31.427.427 0 00.312.468l1.089.194h.078a.38.38 0 00.389-.311.427.427 0 00-.312-.467zm2.683-6.068l-1.089-.195a.427.427 0 00-.467.312.403.403 0 00.311.466l1.09.195h.077a.38.38 0 00.39-.311.427.427 0 00-.312-.467zm-9.958 10.814l-.466-.973c-.078-.194-.312-.272-.506-.194-.195.078-.272.311-.195.506l.467.972c.078.156.195.233.35.233.04 0 .117 0 .156-.038.194-.078.272-.312.194-.506zm-6.029-.506c-.117-.155-.389-.194-.544-.039l-.856.7c-.156.117-.195.39-.04.545.079.078.195.155.312.155a.553.553 0 00.233-.077l.856-.7c.156-.156.195-.39.04-.584zm10.736-8.208c-.117-.155-.389-.194-.545-.038l-.855.66c-.156.156-.195.39-.04.545.079.078.195.156.312.156a.546.546 0 00.233-.078l.856-.7c.156-.117.195-.389.039-.545zm3.462 9.375c-.117-.156-.389-.195-.545-.039l-.855.7c-.156.117-.195.39-.04.545a.442.442 0 00.312.117.553.553 0 00.233-.078l.856-.7c.156-.117.195-.39.039-.545z" fill="#A4ACAD"/></svg>