<svg width="22" height="22" fill="none" xmlns="http://www.w3.org/2000/svg"><g clip-path="url(#clip0_24_1854)" fill="#111"><path d="M19.708 3.667H2.292A2.295 2.295 0 000 5.958v10.084a2.295 2.295 0 002.292 2.291h17.416A2.295 2.295 0 0022 16.042V5.958a2.295 2.295 0 00-2.292-2.291zm1.375 12.375c0 .758-.617 1.375-1.375 1.375H2.292a1.377 1.377 0 01-1.375-1.375V5.958c0-.758.617-1.375 1.375-1.375h17.416c.758 0 1.375.617 1.375 1.375v10.084z"/><path d="M21.542 6.417H.458A.459.459 0 000 6.875v2.75c0 .253.205.458.458.458h21.084A.458.458 0 0022 9.625v-2.75a.458.458 0 00-.458-.458zm-.459 2.75H.917V7.333h20.166v1.834zM8.708 12.833h-5.5a.459.459 0 000 .917h5.5a.459.459 0 000-.917zm0 1.834h-5.5a.458.458 0 000 .916h5.5a.459.459 0 000-.916zm9.167-2.75h-.916c-.759 0-1.375.617-1.375 1.375v.916c0 .758.616 1.375 1.375 1.375h.916c.758 0 1.375-.617 1.375-1.375v-.916c0-.758-.617-1.375-1.375-1.375zm.459 2.291a.459.459 0 01-.459.459h-.916a.459.459 0 01-.459-.459v-.916a.46.46 0 01.459-.459h.916a.46.46 0 01.459.459v.916z"/></g><defs><clipPath id="clip0_24_1854"><path fill="#fff" d="M0 0h22v22H0z"/></clipPath></defs></svg>