<svg width="22" height="22" fill="none" xmlns="http://www.w3.org/2000/svg"><g clip-path="url(#clip0_24_1848)" fill="#fff"><path d="M19.182 11.075v-2.53c0-.857-.665-1.555-1.506-1.623l-2.35-4.103a1.617 1.617 0 00-2.22-.599L5.05 6.91H3.637C2.734 6.91 2 7.642 2 8.545v9.818C2 19.266 2.734 20 3.637 20h13.909c.902 0 1.636-.734 1.636-1.636v-2.53c.475-.17.818-.62.818-1.152v-2.455c0-.532-.343-.982-.818-1.152zM16.725 6.91H13.16l2.674-1.557.891 1.557zm-1.298-2.267L11.534 6.91H9.918l5.106-2.972.403.705zm-1.91-1.715a.802.802 0 011.099.298l.001.002L8.292 6.91H6.678l6.84-3.981zm4.847 15.437a.82.82 0 01-.818.818H3.636a.82.82 0 01-.817-.818V8.546a.82.82 0 01.818-.819h13.909a.82.82 0 01.818.819V11h-2.455a2.457 2.457 0 00-2.454 2.455 2.457 2.457 0 002.454 2.454h2.455v2.455zm.818-3.682a.41.41 0 01-.409.409h-2.864a1.638 1.638 0 01-1.636-1.636c0-.903.734-1.637 1.636-1.637h2.864a.41.41 0 01.41.41v2.454z"/><path d="M15.909 12.636a.82.82 0 000 1.637.82.82 0 000-1.636z"/></g><defs><clipPath id="clip0_24_1848"><path fill="#fff" transform="translate(2 2)" d="M0 0h18v18H0z"/></clipPath></defs></svg>