<svg width="15" height="15" fill="none" xmlns="http://www.w3.org/2000/svg"><path d="M7.5 2.446c.18 0 .326-.147.326-.326v-.163A.327.327 0 007.5 1.63a.327.327 0 00-.326.327v.163c0 .179.147.326.326.326zm0 10.108a.327.327 0 00-.326.326v.163a.327.327 0 00.652.001v-.164a.327.327 0 00-.326-.326zm-5.38-5.38h-.163a.327.327 0 00-.327.326c0 .18.147.326.327.326h.163a.327.327 0 00.326-.326.327.327 0 00-.326-.326zm10.923 0h-.163a.327.327 0 00-.326.326c0 .18.147.326.326.326h.163c.18 0 .327-.147.327-.326a.327.327 0 00-.326-.326zM3.815 3.359a.315.315 0 00-.456 0 .315.315 0 000 .456l.114.114a.322.322 0 00.228.098.322.322 0 00.228-.098.315.315 0 000-.456l-.114-.114zm-.342 7.711l-.114.115a.315.315 0 000 .456.322.322 0 00.228.098.322.322 0 00.228-.098l.114-.114a.315.315 0 000-.456.315.315 0 00-.456 0zm7.712-7.711l-.114.114a.315.315 0 000 .456.322.322 0 00.228.098.322.322 0 00.228-.098l.114-.114a.315.315 0 000-.456.315.315 0 00-.456 0zM7.826 7.37V4.402a.327.327 0 00-.326-.326.327.327 0 00-.326.326V7.5c0 .082.033.163.098.228l3.57 3.57a.322.322 0 00.229.099.322.322 0 00.228-.098.315.315 0 000-.457L7.826 7.37z" fill="#FF9846"/><path d="M7.5 0a7.501 7.501 0 000 15 7.501 7.501 0 000-15zm0 14.348A6.847 6.847 0 01.652 7.5 6.847 6.847 0 017.5.652 6.847 6.847 0 0114.348 7.5 6.847 6.847 0 017.5 14.348z" fill="#FF9846"/></svg>